<svg width="20" height="20" viewBox="0 0 20 20" fill="none" xmlns="http://www.w3.org/2000/svg">
<path d="M6.78124 3.68084C6.65716 3.72828 6.55129 3.80805 6.47697 3.91011C6.40266 4.01217 6.36323 4.13195 6.36365 4.25436L6.36365 16.6547C6.36323 16.7771 6.40266 16.8969 6.47697 16.9989C6.55129 17.101 6.65716 17.1808 6.78124 17.2282C6.90717 17.2729 7.04444 17.2842 7.17716 17.2609C7.30988 17.2376 7.43263 17.1806 7.5312 17.0964L14.349 10.8963C14.475 10.7778 14.5455 10.6194 14.5455 10.4545C14.5455 10.2897 14.475 10.1313 14.349 10.0128L7.5312 3.8126C7.43263 3.72849 7.30988 3.67148 7.17716 3.64816C7.04444 3.62484 6.90717 3.63618 6.78124 3.68084Z" fill="black"/>
</svg>
