<svg width="54" height="24" viewBox="0 0 54 24" fill="none" xmlns="http://www.w3.org/2000/svg">
<path d="M52 0H32C30.8954 0 30 0.89543 30 2V22C30 23.1046 30.8954 24 32 24H52C53.1046 24 54 23.1046 54 22V2C54 0.895431 53.1046 0 52 0Z" fill="#F1F1F1"/>
<path d="M38 17.8C38 17.9105 38.0895 18 38.2 18H39.7765C39.8869 18 39.9765 17.9105 39.9765 17.8V12.8511C39.9765 12.6685 40.2011 12.5814 40.3242 12.7162L45.0876 17.9348C45.1255 17.9763 45.1791 18 45.2353 18H47.271C47.4447 18 47.5358 17.7938 47.4189 17.6654L42.2875 12.029C42.2179 11.9526 42.218 11.8358 42.2877 11.7595L47.2413 6.33486C47.3585 6.20649 47.2674 6 47.0936 6H45.2362C45.1795 6 45.1254 6.0241 45.0875 6.06631L40.3252 11.3649C40.2026 11.5013 39.9765 11.4146 39.9765 11.2312V6.2C39.9765 6.08954 39.8869 6 39.7765 6H38.2C38.0895 6 38 6.08954 38 6.2V17.8Z" fill="#7D7D7D"/>
<path d="M22 0H2C0.895431 0 0 0.89543 0 2V22C0 23.1046 0.89543 24 2 24H22C23.1046 24 24 23.1046 24 22V2C24 0.895431 23.1046 0 22 0Z" fill="#F1F1F1"/>
<path d="M16.3125 6C16.8927 6 17.4491 6.23047 17.8593 6.6407C18.2695 7.05094 18.5 7.60734 18.5 8.1875C18.5 8.76766 18.2695 9.32406 17.8593 9.7343C17.4491 10.1445 16.8927 10.375 16.3125 10.375H14.125V8.1875C14.125 7.60734 14.3555 7.05094 14.7657 6.6407C15.1759 6.23047 15.7323 6 16.3125 6V6Z" stroke="#7D7D7D" stroke-width="1.5" stroke-linecap="round" stroke-linejoin="round"/>
<path d="M10.375 10.375H8.1875C7.60734 10.375 7.05094 10.1445 6.6407 9.7343C6.23047 9.32406 6 8.76766 6 8.1875C6 7.60734 6.23047 7.05094 6.6407 6.6407C7.05094 6.23047 7.60734 6 8.1875 6C8.76766 6 9.32406 6.23047 9.7343 6.6407C10.1445 7.05094 10.375 7.60734 10.375 8.1875V10.375Z" stroke="#7D7D7D" stroke-width="1.5" stroke-linecap="round" stroke-linejoin="round"/>
<path d="M14.125 14.125H16.3125C16.8927 14.125 17.4491 14.3555 17.8593 14.7657C18.2695 15.1759 18.5 15.7323 18.5 16.3125C18.5 16.8927 18.2695 17.4491 17.8593 17.8593C17.4491 18.2695 16.8927 18.5 16.3125 18.5C15.7323 18.5 15.1759 18.2695 14.7657 17.8593C14.3555 17.4491 14.125 16.8927 14.125 16.3125V14.125Z" stroke="#7D7D7D" stroke-width="1.5" stroke-linecap="round" stroke-linejoin="round"/>
<path d="M8.1875 18.5C7.60734 18.5 7.05094 18.2695 6.6407 17.8593C6.23047 17.4491 6 16.8927 6 16.3125C6 15.7323 6.23047 15.1759 6.6407 14.7657C7.05094 14.3555 7.60734 14.125 8.1875 14.125H10.375V16.3125C10.375 16.8927 10.1445 17.4491 9.7343 17.8593C9.32406 18.2695 8.76766 18.5 8.1875 18.5V18.5Z" stroke="#7D7D7D" stroke-width="1.5" stroke-linecap="round" stroke-linejoin="round"/>
<path d="M14.125 10.375H10.375V14.125H14.125V10.375Z" stroke="#7D7D7D" stroke-width="1.5" stroke-linecap="round" stroke-linejoin="round"/>
</svg>
