<svg width="32" height="32" viewBox="0 0 32 32" fill="none" xmlns="http://www.w3.org/2000/svg">
<path d="M24.5128 16.0002C25.4435 14.7188 26.2473 13.3498 26.9128 11.9127C28.3003 8.83768 28.3128 6.38768 26.9628 5.03768C24.7753 2.86268 20.3128 4.42518 16.0003 7.50018C11.6878 4.42518 7.22533 2.86268 5.03783 5.03768C3.68783 6.38768 3.70033 8.83768 5.08783 11.9127C5.75335 13.3498 6.55714 14.7188 7.48783 16.0002C6.55714 17.2816 5.75335 18.6506 5.08783 20.0877C3.70033 23.1627 3.68783 25.6127 5.03783 26.9627C5.73783 27.6627 6.67533 27.9752 7.77533 27.9752C10.0753 27.9752 13.0753 26.5877 16.0003 24.5002C18.9253 26.5877 21.9253 27.9752 24.2253 27.9752C25.3253 27.9752 26.2628 27.6627 26.9628 26.9627C28.3128 25.6127 28.3003 23.1627 26.9128 20.0877C26.2473 18.6506 25.4435 17.2816 24.5128 16.0002ZM24.2253 6.03768C24.8253 6.03768 25.2753 6.17518 25.5503 6.45018C26.2503 7.16268 26.0753 8.88768 25.0878 11.0877C24.5674 12.2191 23.9483 13.3024 23.2378 14.3252C22.4378 13.3377 21.5503 12.3627 20.6003 11.4002C19.6503 10.4377 18.6753 9.58768 17.6628 8.76268C20.4003 6.90018 22.7503 6.03768 24.2253 6.03768ZM22.0128 16.0002C21.1374 17.1196 20.1939 18.1841 19.1878 19.1877C18.1776 20.1906 17.1135 21.1378 16.0003 22.0252C14.8872 21.1378 13.8231 20.1906 12.8128 19.1877C11.8067 18.1841 10.8633 17.1196 9.98783 16.0002C10.8633 14.8808 11.8067 13.8163 12.8128 12.8127C13.8231 11.8098 14.8872 10.8625 16.0003 9.97518C17.1135 10.8625 18.1776 11.8098 19.1878 12.8127C20.1939 13.8163 21.1374 14.8808 22.0128 16.0002ZM6.91283 11.0877C5.92533 8.88768 5.75033 7.16268 6.45033 6.45018C6.72533 6.17518 7.17533 6.03768 7.77533 6.03768C9.25033 6.03768 11.6003 6.90018 14.3378 8.76268C13.3253 9.58768 12.3378 10.4752 11.4003 11.4002C10.4628 12.3252 9.56283 13.3377 8.76283 14.3252C8.05232 13.3024 7.43327 12.2191 6.91283 11.0877ZM6.45033 25.5502C5.75033 24.8377 5.92533 23.1127 6.91283 20.9127C7.43327 19.7813 8.05232 18.6979 8.76283 17.6752C9.56283 18.6627 10.4503 19.6377 11.4003 20.6002C12.3503 21.5627 13.3253 22.4127 14.3378 23.2377C10.4878 25.8502 7.40033 26.5002 6.45033 25.5502ZM25.5503 25.5502C25.2753 25.8252 24.8253 25.9627 24.2253 25.9627C22.7503 25.9627 20.4003 25.1002 17.6628 23.2377C18.6753 22.4127 19.6628 21.5252 20.6003 20.6002C21.5378 19.6752 22.4378 18.6627 23.2378 17.6752C23.9483 18.6979 24.5674 19.7813 25.0878 20.9127C26.0753 23.1127 26.2503 24.8377 25.5503 25.5502ZM17.5003 16.0002C17.5003 16.2969 17.4124 16.5869 17.2475 16.8335C17.0827 17.0802 16.8484 17.2725 16.5744 17.386C16.3003 17.4995 15.9987 17.5292 15.7077 17.4714C15.4167 17.4135 15.1494 17.2706 14.9397 17.0608C14.7299 16.8511 14.587 16.5838 14.5292 16.2928C14.4713 16.0018 14.501 15.7002 14.6145 15.4262C14.728 15.1521 14.9203 14.9178 15.167 14.753C15.4136 14.5882 15.7037 14.5002 16.0003 14.5002C16.3982 14.5002 16.7797 14.6582 17.061 14.9395C17.3423 15.2208 17.5003 15.6024 17.5003 16.0002Z" fill="black"/>
</svg>
