<svg width="32" height="32" viewBox="0 0 32 32" fill="none" xmlns="http://www.w3.org/2000/svg">
<path d="M16 22C19.3137 22 22 19.3137 22 16C22 12.6863 19.3137 10 16 10C12.6863 10 10 12.6863 10 16C10 19.3137 12.6863 22 16 22Z" stroke="black" stroke-width="2" stroke-linecap="round" stroke-linejoin="round"/>
<path d="M24.6745 10.0873C24.9755 10.5181 25.2389 10.974 25.462 11.4498L28.6995 13.2498C29.1038 15.0604 29.1081 16.9374 28.712 18.7498L25.462 20.5498C25.2389 21.0256 24.9755 21.4815 24.6745 21.9123L24.737 25.6248C23.365 26.8751 21.7411 27.8171 19.9745 28.3873L16.787 26.4748C16.2627 26.5123 15.7364 26.5123 15.212 26.4748L12.037 28.3748C10.2649 27.8149 8.63567 26.8766 7.26205 25.6248L7.32455 21.9248C7.02614 21.488 6.76281 21.0282 6.53705 20.5498L3.29955 18.7498C2.8953 16.9392 2.89103 15.0622 3.28705 13.2498L6.53705 11.4498C6.76015 10.974 7.02361 10.5181 7.32455 10.0873L7.26205 6.3748C8.63411 5.12451 10.258 4.18256 12.0245 3.6123L15.212 5.5248C15.7364 5.4873 16.2627 5.4873 16.787 5.5248L19.962 3.6248C21.7342 4.18467 23.3634 5.123 24.737 6.3748L24.6745 10.0873Z" stroke="black" stroke-width="2" stroke-linecap="round" stroke-linejoin="round"/>
</svg>
